<svg id="Layer_1" data-name="Layer 1" xmlns="http://www.w3.org/2000/svg" viewBox="0 0 48.88 48.5"><title>insta</title><path d="M48,14.28V34.43c-.09.67-.18,1.35-.26,2a12.51,12.51,0,0,1-9.71,11c-1.17.29-2.38.36-3.56.55H14.32l-2-.26A12.51,12.51,0,0,1,1.34,38C1.06,36.81,1,35.61.79,34.43V14.28c.09-.7.18-1.4.27-2.1A12.52,12.52,0,0,1,10.69,1.32c1.2-.3,2.43-.37,3.64-.57H34.47l2.1.27a12.52,12.52,0,0,1,10.87,9.63C47.73,11.84,47.81,13.07,48,14.28ZM43.54,24.36c0-3.64.14-7.29-.14-10.93a8.23,8.23,0,0,0-7.11-7.93,22.26,22.26,0,0,0-3.83-.31c-6.32,0-12.64-.24-19,.17a8.13,8.13,0,0,0-7.87,6.7,13.82,13.82,0,0,0-.35,2.72C5.2,21.6,5,28.42,5.41,35.23a8.16,8.16,0,0,0,7.14,8,21.75,21.75,0,0,0,3.76.3c6.34,0,12.69.24,19-.17a8.14,8.14,0,0,0,7.83-6.65,15,15,0,0,0,.37-3.2C43.55,30.45,43.54,27.4,43.54,24.36Z"/><path d="M36.61,24.33A12.22,12.22,0,1,1,24.39,12.14,12.19,12.19,0,0,1,36.61,24.33Zm-4.49,0a7.7,7.7,0,0,0-7.72-7.76,7.78,7.78,0,0,0-7.76,7.76,7.7,7.7,0,0,0,7.76,7.73A7.62,7.62,0,0,0,32.12,24.35Z"/><path d="M37,14.66a2.83,2.83,0,0,1-2.88-3,2.91,2.91,0,1,1,2.88,3Z"/></svg>