<?xml version="1.0" encoding="utf-8"?>
<!-- Generator: Adobe Illustrator 21.1.0, SVG Export Plug-In . SVG Version: 6.00 Build 0)  -->
<svg version="1.1" id="Layer_1" xmlns="http://www.w3.org/2000/svg" xmlns:xlink="http://www.w3.org/1999/xlink" x="0px" y="0px"
	 viewBox="0 0 50 50" enable-background="new 0 0 50 50" xml:space="preserve">
<g>
	<path d="M49.57,14.452c0,7.004,0,14.009,0,21.013c-0.091,0.702-0.187,1.404-0.272,2.108c-0.692,5.75-4.519,10.058-10.132,11.436
		c-1.224,0.3-2.478,0.373-3.714,0.575c-7.004,0-14.009,0-21.013,0c-0.702-0.091-1.403-0.187-2.105-0.272
		C6.582,48.619,2.272,44.793,0.896,39.181c-0.3-1.225-0.379-2.478-0.576-3.716c0-7.004,0-14.009,0-21.013
		c0.093-0.73,0.189-1.459,0.279-2.189C1.294,6.608,5.126,2.294,10.644,0.925c1.25-0.31,2.531-0.389,3.794-0.592
		c7.004,0,14.009,0,21.013,0c0.729,0.093,1.458,0.189,2.187,0.278c5.654,0.695,9.97,4.526,11.338,10.044
		C49.287,11.906,49.372,13.186,49.57,14.452z M44.913,24.967c0.025-3.8,0.15-7.603-0.149-11.4c-0.35-4.446-3.05-7.488-7.419-8.271
		c-1.322-0.237-2.657-0.318-4-0.324c-6.591-0.03-13.185-0.25-19.771,0.177c-4.31,0.28-7.314,2.843-8.208,6.986
		c-0.201,0.931-0.355,1.892-0.366,2.842c-0.086,7.111-0.309,14.224,0.136,21.33c0.282,4.502,3.017,7.521,7.448,8.318
		c1.295,0.233,2.603,0.311,3.918,0.318c6.619,0.032,13.24,0.252,19.853-0.179c4.263-0.278,7.232-2.827,8.165-6.941
		c0.248-1.096,0.375-2.215,0.384-3.334C44.93,31.315,44.913,28.141,44.913,24.967z"/>
	<path d="M37.691,24.929c0.047,7.022-5.595,12.698-12.696,12.775c-7.03,0.076-12.815-5.692-12.795-12.757
		c0.02-7.063,5.677-12.719,12.737-12.734C31.979,12.198,37.643,17.846,37.691,24.929z M33.002,24.958c0-4.508-3.573-8.1-8.057-8.1
		c-4.46,0-8.094,3.633-8.1,8.096c-0.005,4.482,3.588,8.059,8.096,8.061C29.476,33.017,33.002,29.493,33.002,24.958z"/>
	<path d="M38.063,14.841c-1.741-0.009-3.022-1.33-3-3.095c0.021-1.69,1.344-2.976,3.054-2.969c1.691,0.007,3.008,1.329,3.009,3.022
		C41.127,13.544,39.812,14.849,38.063,14.841z"/>
</g>
</svg>
