<?xml version="1.0" encoding="utf-8"?>
<!-- Generator: Adobe Illustrator 21.1.0, SVG Export Plug-In . SVG Version: 6.00 Build 0)  -->
<svg version="1.1" id="Layer_1" xmlns="http://www.w3.org/2000/svg" xmlns:xlink="http://www.w3.org/1999/xlink" x="0px" y="0px"
	 viewBox="0 0 49.594 49.594" enable-background="new 0 0 49.594 49.594" xml:space="preserve">
<g>
	<path d="M49.594,14.217c0,7.053,0,14.107,0,21.16c-0.092,0.707-0.189,1.414-0.274,2.122c-0.697,5.79-4.551,10.129-10.203,11.516
		c-1.233,0.303-2.495,0.376-3.74,0.579c-7.053,0-14.107,0-21.16,0c-0.707-0.091-1.413-0.188-2.12-0.274
		C6.305,48.623,1.965,44.77,0.58,39.119C0.278,37.886,0.198,36.623,0,35.377c0-7.053,0-14.107,0-21.16
		c0.094-0.735,0.19-1.469,0.281-2.205C0.981,6.318,4.84,1.974,10.396,0.596C11.655,0.284,12.944,0.204,14.217,0
		c7.053,0,14.107,0,21.16,0c0.734,0.094,1.468,0.19,2.202,0.28c5.694,0.7,10.039,4.557,11.417,10.114
		C49.309,11.653,49.395,12.943,49.594,14.217z M44.905,24.806c0.026-3.827,0.151-7.656-0.15-11.48
		c-0.352-4.477-3.071-7.541-7.471-8.328c-1.332-0.238-2.675-0.32-4.027-0.327C26.62,4.641,19.98,4.42,13.348,4.85
		c-4.341,0.282-7.365,2.863-8.266,7.035c-0.202,0.938-0.357,1.906-0.369,2.862c-0.087,7.16-0.311,14.323,0.137,21.479
		c0.284,4.534,3.038,7.574,7.5,8.376c1.304,0.235,2.621,0.314,3.945,0.32c6.665,0.032,13.332,0.254,19.992-0.181
		c4.293-0.28,7.283-2.847,8.222-6.99c0.25-1.104,0.378-2.23,0.387-3.358C44.921,31.198,44.905,28.002,44.905,24.806z"/>
	<path d="M37.631,24.767c0.047,7.071-5.634,12.787-12.784,12.864c-7.079,0.076-12.904-5.732-12.885-12.846
		c0.02-7.112,5.716-12.808,12.826-12.823C31.88,11.947,37.584,17.635,37.631,24.767z M32.91,24.797c0-4.54-3.598-8.156-8.113-8.156
		c-4.491,0-8.151,3.659-8.156,8.152c-0.005,4.513,3.613,8.115,8.152,8.117C29.36,32.912,32.91,29.364,32.91,24.797z"/>
	<path d="M38.006,14.609c-1.753-0.009-3.043-1.339-3.021-3.116c0.021-1.701,1.353-2.997,3.075-2.989
		c1.703,0.007,3.029,1.339,3.03,3.043C41.092,13.303,39.768,14.617,38.006,14.609z"/>
</g>
</svg>
