<?xml version="1.0" encoding="utf-8"?>
<!-- Generator: Adobe Illustrator 21.1.0, SVG Export Plug-In . SVG Version: 6.00 Build 0)  -->
<svg version="1.1" id="Layer_1" xmlns="http://www.w3.org/2000/svg" xmlns:xlink="http://www.w3.org/1999/xlink" x="0px" y="0px"
	 viewBox="0 0 50 50" style="enable-background:new 0 0 50 50;" xml:space="preserve">
<path d="M48.2,15.2v19.6c-0.1,0.7-0.2,1.3-0.3,1.9c-0.5,5.2-4.3,9.5-9.4,10.7c-1.1,0.3-2.3,0.3-3.5,0.5H15.4l-1.9-0.3
	C8.3,47.2,4,43.4,2.8,38.3c-0.3-1.2-0.3-2.3-0.5-3.5V15.2c0.1-0.7,0.2-1.4,0.3-2c0.6-5.2,4.3-9.4,9.4-10.6c1.2-0.3,2.4-0.4,3.5-0.6
	H35l2,0.3c5.2,0.5,9.4,4.3,10.6,9.4C47.9,12.9,48,14.1,48.2,15.2z M43.8,25c0-3.5,0.1-7.1-0.1-10.6c-0.1-3.9-3-7.2-6.9-7.7
	c-1.2-0.2-2.5-0.3-3.7-0.3c-6.1,0-12.3-0.2-18.5,0.2c-3.8,0.1-7,2.8-7.6,6.5c-0.2,0.9-0.3,1.8-0.3,2.6c0,6.6-0.2,13.3,0.2,19.9
	c0,4,3,7.3,6.9,7.8c1.2,0.2,2.4,0.3,3.7,0.3c6.2,0,12.3,0.2,18.5-0.2c3.7-0.1,6.9-2.8,7.6-6.5c0.2-1,0.4-2.1,0.4-3.1
	C43.8,30.9,43.8,28,43.8,25z"/>
<path d="M37.1,24.8c0,6.6-5.3,11.9-11.8,11.9s-11.9-5.3-11.9-11.8s5.3-11.9,11.8-11.9c0,0,0,0,0,0C31.8,12.9,37.1,18.2,37.1,24.8
	C37.1,24.7,37.1,24.7,37.1,24.8z M32.7,24.8c0-4.1-3.3-7.5-7.4-7.5c0,0-0.1,0-0.1,0c-4.2,0-7.5,3.4-7.5,7.5c0,4.1,3.3,7.5,7.5,7.5
	c0,0,0.1,0,0.1,0c4.1,0.1,7.4-3.2,7.5-7.3C32.7,24.9,32.7,24.8,32.7,24.8L32.7,24.8z"/>
<path d="M37.5,15.4c-1.5,0-2.8-1.2-2.8-2.7c0-0.1,0-0.1,0-0.2c0-1.6,1.4-2.8,2.9-2.7c1.6,0,2.8,1.4,2.7,2.9
	C40.3,14.2,39,15.4,37.5,15.4z"/>
</svg>
