<svg id="Layer_1" data-name="Layer 1" xmlns="http://www.w3.org/2000/svg" viewBox="0 0 281.513 283.53431"><defs><style>.cls-1{fill:#fff;}</style></defs><title>play</title><g id="peMa6h.tif"><path class="cls-1" d="M12.45876,140.68085c0-2.94327-.09839-5.89111.038-8.828.07808-1.681.31576-3.3716.49333-5.05335.20323-1.92482.60832-3.81547.78092-5.744a46.35413,46.35413,0,0,1,.90593-5.33061c.79-3.77787,1.64534-7.53823,2.75692-11.23645A129.70731,129.70731,0,0,1,25.72553,83.545a124.89439,124.89439,0,0,1,7.6838-13.20762A127.62708,127.62708,0,0,1,46.15142,54.14508a133.69462,133.69462,0,0,1,9.98739-9.68263,122.17709,122.17709,0,0,1,10.11393-7.94436,131.77293,131.77293,0,0,1,12.12911-7.5772c3.45245-1.90362,6.99657-3.60381,10.58966-5.2036,2.85593-1.27158,5.78988-2.356,8.7398-3.40524q3.358-1.19438,6.78271-2.137a69.97806,69.97806,0,0,1,7.81509-1.93154c1.58365-.24721,3.13435-.73759,4.722-1.01558,1.08774-.19046,2.1747-.41368,3.27192-.51528,1.87654-.17378,3.72429-.54073,5.59368-.76683,2.3872-.28874,4.78006-.47471,7.17232-.52775,4.23737-.09394,8.47891-.072,12.7175-.0121,2.558.03617,5.10741.26924,7.65647.5522,2.67605.29706,5.3246.7665,7.99338,1.10285,1.69689.21386,3.35308.73625,5.03681,1.074,1.26311.25335,2.52928.47665,3.7796.80151a140.30545,140.30545,0,0,1,14.65158,4.58366c3.78634,1.44038,7.4786,3.08137,11.12412,4.82425a103.18525,103.18525,0,0,1,9.14433,5.01876c3.085,1.87921,6.12,3.83507,9.03376,5.97135,3.02405,2.21716,5.96843,4.53291,8.81453,6.98028a123.55747,123.55747,0,0,1,9.02029,8.59572,121.30949,121.30949,0,0,1,9.43742,11.18491c1.67349,2.2517,3.30987,4.52644,4.859,6.86369,1.65452,2.49633,3.16211,5.08381,4.63958,7.68687a105.05077,105.05077,0,0,1,5.12937,10.27674c1.38452,3.21286,2.71578,6.445,3.84773,9.76441q1.39748,4.09819,2.60743,8.24752c1.08453,3.73351,1.74784,7.56382,2.59885,11.3507.22936,1.02055.25935,2.08473.40639,3.12527.16512,1.16843.34209,2.33577.54623,3.49789.15812.9.22919,1.81948.32191,2.71663.15193,1.46988.38406,2.94685.3913,4.42743.02817,5.75138.0778,11.50421-.02923,17.25374a48.92513,48.92513,0,0,1-.49793,5.21462c-.32888,2.58706-.7359,5.16227-1.0788,7.74666-.16616,1.25237-.442,2.49085-.68625,3.73208A120.5607,120.5607,0,0,1,260.5403,181.021a126.1145,126.1145,0,0,1-26.04192,44.70156c-2.19639,2.418-4.40709,4.82209-6.7886,7.05421a135.39981,135.39981,0,0,1-11.67491,9.85485q-5.49246,4.09145-11.33481,7.64476c-1.9084,1.16636-3.92243,2.15967-5.8865,3.23528a108.0518,108.0518,0,0,1-11.79957,5.48788c-3.02293,1.2094-6.10274,2.27453-9.224,3.23093-2.59881.79628-5.19787,1.58086-7.83781,2.21621-3.32192.79951-6.65217,1.57173-10.04287,2.03981-4.217.58211-8.424,1.19256-12.6929,1.36516-4.67115.18885-9.33983.14748-14.00663.07748a77.96076,77.96076,0,0,1-10.78613-.98483c-2.97826-.4627-5.96336-.878-8.91244-1.54737-3.9851-.90448-7.92605-1.93343-11.83964-3.11873a123.09159,123.09159,0,0,1-28.02816-12.604c-3.17861-1.943-6.2917-3.98824-9.283-6.20673-2.83725-2.10423-5.60891-4.29354-8.27185-6.62254-2.68177-2.34546-5.303-4.75007-7.76817-7.32165-2.05223-2.14081-4.053-4.32859-5.97193-6.59148q-3.53511-4.16883-6.7014-8.62219c-2.26549-3.19-4.35406-6.497-6.32861-9.87811-1.67514-2.86845-3.20226-5.81279-4.65034-8.79732-1.495-3.08137-2.77788-6.25515-4.03364-9.44347-.84036-2.13364-1.59063-4.29562-2.30243-6.46773a121.81057,121.81057,0,0,1-3.66509-14.1618c-.54771-2.74975-.81212-5.53755-1.29993-8.28934A86.68329,86.68329,0,0,1,12.45876,140.68085Zm127.06282,118.855c32.79132-.42568,60.97658-11.76927,84.03305-34.84515,22.93368-22.953,34.67358-50.90827,34.82968-83.44915.15519-32.35511-11.17636-60.34881-33.685-83.44676-23.136-23.74171-51.63855-35.84034-84.84826-35.87518-33.25816-.0349-61.84239,11.97329-85.08517,35.71022-22.43778,22.9148-33.83433,50.69948-33.85584,82.871-.0219,32.75582,11.66521,60.92441,34.71294,84.068C78.70848,247.7503,106.96693,259.12358,139.52158,259.53589Z"/><path class="cls-1" d="M116.30369,142.40571q0-28.675.00979-57.35c.00028-.45455-.25037-1.09691.29312-1.31817.4891-.19913.867.3333,1.22874.63292q8.56652,7.09533,17.11873,14.20792,8.61618,7.15985,17.22625,14.327c3.00277,2.50369,5.97388,5.04542,8.98176,7.54291,3.67185,3.04881,7.37587,6.05887,11.04907,9.10605,1.95041,1.618,3.85222,3.29453,5.799,4.917,2.62927,2.19122,5.30157,4.33117,7.91428,6.54176,1.4232,1.20417,1.95525,1.31.13464,2.75378-3.54973,2.81512-6.99568,5.7615-10.47474,8.66531-4.09894,3.42118-8.17852,6.86556-12.28272,10.28038-4.89161,4.07-9.80626,8.11223-14.69974,12.18-3.13117,2.60278-6.2362,5.237-9.3638,7.84418-2.89994,2.41739-5.81875,4.81214-8.721,7.2267-2.73559,2.27584-5.45775,4.56779-8.19115,6.84627q-2.42368,2.02031-4.86515,4.01928c-.24651.20268-.50708.46834-.86306.282-.34894-.1826-.279-.55248-.29005-.86945-.01125-.32363-.00385-.64793-.00385-.97194Q116.30363,170.83766,116.30369,142.40571Z"/></g></svg>